<?xml version="1.0" encoding="utf-8"?>
<!-- Generator: Adobe Illustrator 22.0.0, SVG Export Plug-In . SVG Version: 6.00 Build 0)  -->
<svg version="1.1" id="Capa_1" xmlns="http://www.w3.org/2000/svg" xmlns:xlink="http://www.w3.org/1999/xlink" x="0px" y="0px"
	 viewBox="0 0 1440 900" style="enable-background:new 0 0 1440 900;" xml:space="preserve">
<style type="text/css">
	.st0{fill:#004B64;}
	.st1{fill:#F0F0FF;}
	.st2{fill:#FFB400;}
	.st3{fill:#7F7F7F;}
	.st4{fill:#00B4FF;}
	.st5{fill:#001E28;}
	.st6{fill:#FFB400;stroke:#FFB400;stroke-width:10;stroke-linecap:round;stroke-linejoin:round;stroke-miterlimit:10;}
	.st7{fill:none;stroke:#FFB400;stroke-width:14;stroke-miterlimit:10;}
	.st8{fill:#004B64;stroke:#004B64;stroke-width:10;stroke-linecap:round;stroke-linejoin:round;stroke-miterlimit:10;}
	.st9{fill:#F0F0FF;stroke:#F0F0FF;stroke-width:10;stroke-linecap:round;stroke-linejoin:round;stroke-miterlimit:10;}
	.st10{fill:#004B64;stroke:#004B64;stroke-width:20;stroke-linecap:round;stroke-linejoin:round;stroke-miterlimit:10;}
</style>
<g>
	<path class="st2" d="M331.6,762.9c-24.9,0-45-20.1-45-45V156.3c0-24.9,20.1-45,45-45h318.9c24.9,0,45,20.1,45,45v561.7
		c0,24.9-20.1,45-45,45H331.6z"/>
	<path class="st2" d="M650.6,156.3v561.7H331.7V156.3H650.6 M650.6,66.3H331.7c-49.7,0-90,40.3-90,90v561.7c0,49.7,40.3,90,90,90
		h318.9c49.7,0,90-40.3,90-90V156.3C740.6,106.6,700.3,66.3,650.6,66.3L650.6,66.3z"/>
</g>
<g>
	<path class="st2" d="M111,644.6c-24.9,0-45-20.1-45-45v-339c0-24.9,20.1-45,45-45h1219.6c24.9,0,45,20.1,45,45v339
		c0,24.9-20.1,45-45,45H111z"/>
	<path class="st2" d="M1330.6,260.6v339H111v-339H1330.6 M1330.6,170.6H111c-49.7,0-90,40.3-90,90v339c0,49.7,40.3,90,90,90h1219.6
		c49.7,0,90-40.3,90-90v-339C1420.6,210.9,1380.3,170.6,1330.6,170.6L1330.6,170.6z"/>
</g>
<path class="st1" d="M313.6,410c0,27.1-36.8,49.1-82.2,49.1s-82.2-22-82.2-49.1s36.8-49.1,82.2-49.1S313.6,382.9,313.6,410z"/>
<path class="st1" d="M827.1,410c0,27.1-36.8,49.1-82.2,49.1c-45.4,0-82.2-22-82.2-49.1s36.8-49.1,82.2-49.1
	C790.3,360.9,827.1,382.9,827.1,410z"/>
<path class="st10" d="M231.6,328.3c37.3,0,64.3,6.8,81.1,20.3c16.8,13.6,25.2,33.7,25.2,60.5c0.3,22-4.2,39.2-13.7,51.6
	c-9.5,12.4-24.6,18.6-45.2,18.6H134.5v-33.5h133.2c11.2,0,18.5-3.8,21.9-11.4c3.4-7.6,5.1-16,5.1-25.2c-0.3-15.9-5.1-27.3-14.2-34.1
	c-9.2-6.8-24.7-10.2-46.8-10.2c-18,0-32.1,2.6-42.4,7.9c-10.3,5.3-17.6,14.4-21.9,27.5c-4.2,13-6.4,31.3-6.4,54.6
	c0,26.4,2.6,46.6,7.9,60.5c5.3,13.9,13.6,23.4,25.2,28.5c11.5,5.1,26.8,7.6,45.7,7.6c13.2,0,27.7-0.6,43.5-1.8
	c15.8-1.2,29.9-2.6,42.4-4.3l4.6,29c-7.8,3-17.4,5.6-28.7,7.6c-11.4,2-23,3.6-35.1,4.6c-12,1-22.8,1.5-32.3,1.5
	c-28.5,0-51.3-4.3-68.6-13c-17.3-8.6-29.9-22.5-37.9-41.7c-8-19.1-11.9-44.5-11.9-76c0-32.5,4-58.2,11.9-77
	c8-18.8,20.3-32.2,37.1-40.2C183.5,332.3,205.1,328.3,231.6,328.3z"/>
<path class="st10" d="M634,181l-106.2,338c-1.4,3.4-3.6,6.4-6.6,8.9c-3,2.5-6.6,3.8-10.7,3.8h-45.2c-4.4,0-8.1-1.3-11.2-3.8
	c-3-2.5-5.1-5.5-6.1-8.9L341.7,181H388l82.9,278.1c1.7,6.4,3.5,12.8,5.3,19.1c1.9,6.3,3.5,12.6,4.8,19.1h13.7
	c1.7-6.4,3.4-12.9,5.1-19.3c1.7-6.4,3.6-12.9,5.6-19.3L587.7,181H634z"/>
<path class="st10" d="M747.7,328.3c37.3,0,64.3,6.8,81.1,20.3c16.8,13.6,25.2,33.7,25.2,60.5c0.3,22-4.2,39.2-13.7,51.6
	c-9.5,12.4-24.6,18.6-45.2,18.6H650.6v-33.5h133.2c11.2,0,18.5-3.8,21.9-11.4c3.4-7.6,5.1-16,5.1-25.2c-0.3-15.9-5.1-27.3-14.2-34.1
	c-9.2-6.8-24.7-10.2-46.8-10.2c-18,0-32.1,2.6-42.4,7.9c-10.3,5.3-17.6,14.4-21.9,27.5c-4.2,13-6.4,31.3-6.4,54.6
	c0,26.4,2.6,46.6,7.9,60.5c5.3,13.9,13.6,23.4,25.2,28.5c11.5,5.1,26.8,7.6,45.7,7.6c13.2,0,27.7-0.6,43.5-1.8
	c15.8-1.2,29.9-2.6,42.4-4.3l4.6,29c-7.8,3-17.4,5.6-28.7,7.6c-11.4,2-23,3.6-35.1,4.6c-12,1-22.8,1.5-32.3,1.5
	c-28.5,0-51.3-4.3-68.6-13c-17.3-8.6-29.9-22.5-37.9-41.7c-8-19.1-11.9-44.5-11.9-76c0-32.5,4-58.2,11.9-77
	c8-18.8,20.3-32.2,37.1-40.2C699.7,332.3,721.3,328.3,747.7,328.3z"/>
<path class="st10" d="M938.7,334.4l3.6,47.3l3.1,7.6v192.7h-43.2V334.4H938.7z M1052.5,328.3c44.7,0,67.1,22.7,67.1,68.1v185.5
	h-43.2V408.6c0-16.6-2.7-28-8.1-34.3c-5.4-6.3-14.6-9.4-27.5-9.4c-15.2,0-30.5,3.7-45.7,11.2c-15.2,7.5-33.4,17.6-54.4,30.5l-2-31
	c19.3-14.9,38.5-26.5,57.4-34.8C1015.1,332.4,1033.9,328.3,1052.5,328.3z"/>
<path class="st10" d="M1321.3,334.4v34.1h-166.7v-31.5l48.8-2.5H1321.3z M1242.5,261.2v252.6c0,11.9,2.5,20.3,7.6,25.4
	c5.1,5.1,13.7,7.6,25.9,7.6h37.6l5.1,33c-5.4,1.4-11.7,2.5-18.8,3.6c-7.1,1-14.1,1.8-20.8,2.3c-6.8,0.5-12.2,0.8-16.3,0.8
	c-20.7,0-36.4-5.8-47.3-17.3c-10.8-11.5-16.3-28.1-16.3-49.8V261.2H1242.5z"/>
<circle class="st0" cx="262.9" cy="410.6" r="40.1"/>
<circle class="st0" cx="778.4" cy="408.6" r="40.1"/>
<circle class="st0" cx="487.1" cy="684.8" r="60.2"/>
</svg>
