<?xml version="1.0" encoding="utf-8"?>
<!-- Generator: Adobe Illustrator 22.0.0, SVG Export Plug-In . SVG Version: 6.00 Build 0)  -->
<svg version="1.1" id="Capa_1" xmlns="http://www.w3.org/2000/svg" xmlns:xlink="http://www.w3.org/1999/xlink" x="0px" y="0px"
	 viewBox="0 0 1440 900" style="enable-background:new 0 0 1440 900;" xml:space="preserve">
<style type="text/css">
	.st0{fill:#004B64;}
	.st1{fill:#F0F0FF;}
	.st2{fill:#FFB400;}
	.st3{fill:#7F7F7F;}
	.st4{fill:#00B4FF;}
	.st5{fill:#001E28;}
	.st6{fill:#FFB400;stroke:#FFB400;stroke-width:10;stroke-linecap:round;stroke-linejoin:round;stroke-miterlimit:10;}
	.st7{fill:none;stroke:#FFB400;stroke-width:14;stroke-miterlimit:10;}
	.st8{fill:#004B64;stroke:#004B64;stroke-width:10;stroke-linecap:round;stroke-linejoin:round;stroke-miterlimit:10;}
	.st9{fill:#F0F0FF;stroke:#F0F0FF;stroke-width:10;stroke-linecap:round;stroke-linejoin:round;stroke-miterlimit:10;}
	.st10{fill:#004B64;stroke:#004B64;stroke-width:20;stroke-linecap:round;stroke-linejoin:round;stroke-miterlimit:10;}
	.st11{fill:#00B4FF;stroke:#00B4FF;stroke-width:10;stroke-linecap:round;stroke-linejoin:round;stroke-miterlimit:10;}
</style>
<path class="st1" d="M326.5,436.9v-92.4c0-33.1-8.4-55.9-25.2-68.3c-16.8-12.4-42.9-18.5-78.4-18.5c-35.5,0-61.6,6.2-78.4,18.5
	c-16.8,12.4-25.2,35.1-25.2,68.3v162.4c0,30.8,3.9,53.9,11.5,69.3c7.7,15.4,19.4,25.8,35,31.1c15.6,5.4,35.4,8,59.2,8
	c22.4,0,41.1-2.7,56-8c14.9-5.4,26.3-16,34-31.8c7.7-15.9,11.5-39,11.5-69.3v-24.5h-65.8v51.1c0,17.7-2.6,30-7.7,36.8
	c-5.1,6.8-14.7,10.2-28.7,10.2c-15.4,0-25.8-3.5-31.1-10.5c-5.4-7-8.1-19.1-8.1-36.4v-95.9H326.5z M231.1,345.5
	c0-15.9,2.7-27.2,8.1-34c5.4-6.8,15.3-10.2,29.8-10.2c14.9,0,25,3.4,30.1,10.2c5.1,6.8,7.7,18.1,7.7,34v68.6h-75.6V345.5z"/>
<polygon class="st2" points="428.6,569.8 357.2,156.1 425.8,156.1 475.5,494.9 474.8,494.9 525.9,156.1 592.4,156.1 520.3,569.8 "/>
<path class="st2" d="M884.3,609.8V263.3h55.3l6.3,39.9c4.7-14.5,13.3-25.6,25.9-33.3c12.6-7.7,26.4-11.6,41.3-11.6
	c22.9,0,40,4,51.4,11.9c11.4,7.9,19,18.8,22.8,32.5c3.7,13.8,5.6,29.5,5.6,47.3v259.7h-65.8V355c0-6.5-0.2-12.8-0.7-18.9
	c-0.5-6.1-1.9-11.4-4.2-16.1c-2.3-4.7-6.1-8.4-11.2-11.2c-5.1-2.8-12.6-4.2-22.4-4.2c-7.9,0-14.6,1.5-20,4.5
	c-5.4,3-9.5,6.5-12.3,10.5c-2.8,4-4.9,7.8-6.3,11.6v278.6H884.3z"/>
<path class="st2" d="M1239.9,611.9c-10.3,0-20.3-1.2-30.1-3.5c-9.8-2.3-18.4-6.2-25.9-11.5c-7.5-5.4-13.4-12.8-17.8-22.4
	c-4.4-9.6-6.7-21.8-6.7-36.8V303.2h-32.2v-33.6l37.8-6.3l9.8-64.4h50.4v64.4h69.3v39.9h-69.3v223.3c0,10.7,2.1,20.2,6.3,28.3
	c4.2,8.2,13.3,12.3,27.3,12.3c6.1,0,13-0.3,20.6-1c7.7-0.7,12.7-1,15.1-1v39.9c-2.3,0.5-8.9,1.8-19.6,3.9
	C1264.2,610.8,1252.5,611.9,1239.9,611.9z"/>
<circle class="st1" cx="473" cy="715.3" r="67"/>
<path class="st1" d="M834.6,436.9v-92.4c0-33.1-8.4-55.9-25.2-68.3c-16.8-12.4-42.9-18.5-78.4-18.5c-35.5,0-61.6,6.2-78.4,18.5
	c-16.8,12.4-25.2,35.1-25.2,68.3v162.4c0,30.8,3.9,53.9,11.5,69.3c7.7,15.4,19.4,25.8,35,31.1c15.6,5.4,35.4,8,59.2,8
	c22.4,0,41.1-2.7,56-8c14.9-5.4,26.3-16,34-31.8c7.7-15.9,11.5-39,11.5-69.3v-24.5h-65.8v51.1c0,17.7-2.6,30-7.7,36.8
	c-5.1,6.8-14.7,10.2-28.7,10.2c-15.4,0-25.8-3.5-31.1-10.5c-5.4-7-8.1-19.1-8.1-36.4v-95.9H834.6z M739.2,345.5
	c0-15.9,2.7-27.2,8.1-34c5.4-6.8,15.3-10.2,29.8-10.2c14.9,0,25,3.4,30.1,10.2c5.1,6.8,7.7,18.1,7.7,34v68.6h-75.6V345.5z"/>
</svg>
