<?xml version="1.0" encoding="utf-8"?>
<!-- Generator: Adobe Illustrator 22.0.0, SVG Export Plug-In . SVG Version: 6.00 Build 0)  -->
<svg version="1.1" id="Capa_1" xmlns="http://www.w3.org/2000/svg" xmlns:xlink="http://www.w3.org/1999/xlink" x="0px" y="0px"
	 viewBox="0 0 1440 900" style="enable-background:new 0 0 1440 900;" xml:space="preserve">
<style type="text/css">
	.st0{fill:#004B64;}
	.st1{fill:#F0F0FF;}
	.st2{fill:#FFB400;}
	.st3{fill:#7F7F7F;}
	.st4{fill:#00B4FF;}
	.st5{fill:#001E28;}
	.st6{fill:#FFB400;stroke:#FFB400;stroke-width:10;stroke-linecap:round;stroke-linejoin:round;stroke-miterlimit:10;}
	.st7{fill:none;stroke:#FFB400;stroke-width:14;stroke-miterlimit:10;}
	.st8{fill:#004B64;stroke:#004B64;stroke-width:10;stroke-linecap:round;stroke-linejoin:round;stroke-miterlimit:10;}
	.st9{fill:#F0F0FF;stroke:#F0F0FF;stroke-width:10;stroke-linecap:round;stroke-linejoin:round;stroke-miterlimit:10;}
</style>
<rect x="-19" y="27" class="st0" width="1459" height="845"/>
<path class="st1" d="M208.9,617.7c-24.1,0-44.1-2.7-59.9-8.2c-15.8-5.4-27.7-16-35.5-31.6c-7.8-15.6-11.7-39-11.7-70.2V343.3
	c0-33.6,8.5-56.6,25.5-69.2c17-12.5,43.5-18.8,79.4-18.8c35.9,0,62.4,6.3,79.4,18.8c17,12.5,25.5,35.6,25.5,69.2v93.6H168.5v97.2
	c0,17.5,2.7,29.8,8.2,36.9c5.4,7.1,16,10.6,31.6,10.6c14.2,0,23.9-3.4,29.1-10.3c5.2-6.8,7.8-19.3,7.8-37.2v-51.8h66.7v24.8
	c0,30.7-3.9,54.1-11.7,70.2c-7.8,16.1-19.3,26.8-34.4,32.3C250.5,615,231.6,617.7,208.9,617.7z"/>
<path class="st0" d="M215.1,413.8h76.6v-69.5c0-16.1-2.6-27.5-7.8-34.4c-5.2-6.8-15.4-10.3-30.5-10.3c-14.7,0-24.7,3.4-30.1,10.3
	c-5.4,6.9-8.2,18.3-8.2,34.4V413.8z"/>
<polygon class="st2" points="415.3,571.5 343,152.4 412.5,152.4 462.8,495.7 462.1,495.7 513.9,152.4 581.3,152.4 508.2,571.5 "/>
<path class="st1" d="M723.8,617.7c-24.1,0-44.1-2.7-59.9-8.2c-15.8-5.4-27.7-16-35.5-31.6c-7.8-15.6-11.7-39-11.7-70.2V343.3
	c0-33.6,8.5-56.6,25.5-69.2c17-12.5,43.5-18.8,79.4-18.8c35.9,0,62.4,6.3,79.4,18.8c17,12.5,25.5,35.6,25.5,69.2v93.6H683.4v97.2
	c0,17.5,2.7,29.8,8.2,36.9c5.4,7.1,16,10.6,31.6,10.6c14.2,0,23.9-3.4,29.1-10.3c5.2-6.8,7.8-19.3,7.8-37.2v-51.8h66.7v24.8
	c0,30.7-3.9,54.1-11.7,70.2c-7.8,16.1-19.3,26.8-34.4,32.3C765.4,615,746.5,617.7,723.8,617.7z"/>
<path class="st0" d="M730,413.8h76.6v-69.5c0-16.1-2.6-27.5-7.8-34.4c-5.2-6.8-15.4-10.3-30.5-10.3c-14.7,0-24.7,3.4-30.1,10.3
	c-5.4,6.9-8.2,18.3-8.2,34.4V413.8z"/>
<path class="st2" d="M877,612.1V261h56l6.4,40.4c4.7-14.7,13.5-25.9,26.2-33.7c12.8-7.8,26.7-11.7,41.8-11.7
	c23.2,0,40.5,4,52.1,12.1c11.6,8,19.3,19,23.1,33c3.8,14,5.7,29.9,5.7,47.9v263.1h-66.7V353.9c0-6.6-0.2-13-0.7-19.1
	c-0.5-6.1-1.9-11.6-4.3-16.3c-2.4-4.7-6.2-8.5-11.3-11.3c-5.2-2.8-12.8-4.3-22.7-4.3c-8,0-14.8,1.5-20.2,4.6
	c-5.4,3.1-9.6,6.6-12.4,10.6c-2.8,4-5,7.9-6.4,11.7v282.3H877z"/>
<path class="st2" d="M1237.3,614.2c-10.4,0-20.6-1.2-30.5-3.5c-9.9-2.4-18.7-6.3-26.2-11.7c-7.6-5.4-13.6-13-18.1-22.7
	c-4.5-9.7-6.7-22.1-6.7-37.2V301.4h-32.6v-34l38.3-6.4l9.9-65.3h51.1V261h70.2v40.4h-70.2v226.2c0,10.9,2.1,20.5,6.4,28.7
	c4.3,8.3,13.5,12.4,27.7,12.4c6.1,0,13.1-0.4,20.9-1.1c7.8-0.7,12.9-1.1,15.2-1.1v40.4c-2.4,0.5-9,1.8-19.9,3.9
	C1261.9,613.1,1250.1,614.2,1237.3,614.2z"/>
<circle class="st1" cx="460.2" cy="719" r="67.9"/>
</svg>
